<?xml version="1.0" standalone="no"?>
<!DOCTYPE svg PUBLIC "-//W3C//DTD SVG 20010904//EN"
 "http://www.w3.org/TR/2001/REC-SVG-20010904/DTD/svg10.dtd">
<svg version="1.0" xmlns="http://www.w3.org/2000/svg"
 width="300.000000pt" height="250.000000pt" viewBox="0 0 300.000000 250.000000"
 preserveAspectRatio="xMidYMid meet">
<metadata>
Created by potrace 1.10, written by Peter Selinger 2001-2011
</metadata>
<g transform="translate(0.000000,250.000000) scale(0.100000,-0.100000)"
fill="#000000" stroke="none">
<path d="M1173 2287 c-9 -30 -8 -33 11 -33 17 0 22 6 21 30 0 41 -19 43 -32 3z"/>
<path d="M1276 2296 c-20 -31 -20 -35 0 -32 21 3 39 35 27 47 -7 7 -16 1 -27
-15z"/>
<path d="M1410 2295 c-13 -14 -19 -25 -14 -25 14 0 54 30 54 41 0 16 -16 10
-40 -16z"/>
<path d="M1528 2264 c-16 -8 -28 -19 -28 -24 0 -17 25 -11 48 10 36 33 26 40
-20 14z"/>
<path d="M946 2208 c-15 -32 -17 -48 -9 -81 l9 -42 13 43 c7 24 11 60 9 81
l-3 38 -19 -39z"/>
<path d="M1620 2206 c-6 -19 -33 -55 -61 -81 -62 -58 -82 -89 -75 -113 4 -11
2 -31 -3 -46 -8 -19 -16 -25 -33 -22 -15 2 -23 10 -23 22 0 13 6 18 18 16 13
-2 17 5 19 35 0 21 0 48 -1 60 -1 12 5 39 14 59 17 42 19 58 5 49 -16 -10 -50
-96 -50 -126 0 -21 -4 -27 -15 -23 -11 5 -12 10 -4 26 6 11 8 26 5 35 -3 8 -1
23 4 34 8 15 7 19 -4 19 -17 0 -26 -21 -26 -60 0 -16 -5 -30 -12 -32 -9 -3 -9
-12 1 -37 11 -26 11 -34 1 -44 -10 -9 -14 -9 -17 1 -3 6 -9 10 -13 7 -5 -3
-12 0 -16 6 -4 7 -3 9 4 6 6 -5 11 12 14 47 2 42 0 52 -11 48 -10 -4 -11 1 -6
19 7 21 6 22 -9 10 -17 -14 -23 -87 -6 -76 12 8 13 3 0 -29 -6 -16 -15 -24
-24 -20 -18 7 -11 113 11 167 9 20 14 40 11 43 -11 10 -48 -64 -57 -111 -12
-62 -40 -84 -60 -46 -12 21 -12 108 0 131 4 8 1 20 -6 27 -10 10 -14 7 -20
-15 -7 -29 -7 -141 0 -210 3 -24 1 -41 -4 -38 -12 8 -21 46 -11 46 16 0 -2 38
-20 43 -16 4 -18 13 -13 68 2 35 9 77 13 92 6 17 6 25 0 22 -5 -3 -15 -25 -21
-48 -6 -23 -15 -45 -21 -48 -6 -4 -5 -29 3 -68 13 -61 24 -76 32 -43 4 13 5
11 6 -5 0 -13 -3 -23 -9 -23 -5 0 -10 -5 -10 -11 0 -5 5 -7 10 -4 6 3 10 1 10
-4 0 -6 -4 -11 -10 -11 -5 0 -6 -8 -3 -17 6 -17 6 -17 -10 -1 -10 9 -17 21
-16 25 1 4 1 15 0 23 -1 13 -2 13 -11 0 -7 -11 -10 -2 -10 31 0 38 -3 47 -17
45 -10 0 -19 9 -23 24 -5 20 -8 15 -12 -24 -3 -28 -2 -61 3 -74 12 -30 12 -62
0 -62 -5 0 -15 25 -21 55 -15 70 -30 72 -18 3 12 -71 27 -107 50 -119 11 -6
17 -17 14 -24 -3 -8 0 -16 7 -19 7 -2 5 -5 -5 -5 -50 -3 -107 95 -93 159 10
46 -11 43 -24 -3 -9 -31 -9 -50 -2 -70 19 -49 14 -61 -31 -75 -24 -8 -51 -21
-60 -29 -18 -16 -18 -17 -43 54 -2 6 1 14 8 17 7 2 -1 5 -17 5 -18 1 -26 5
-23 14 2 6 -7 21 -20 31 l-25 19 7 -33 c6 -29 14 -41 63 -93 13 -14 14 -20 4
-26 -7 -4 -10 -15 -7 -24 7 -16 -21 -87 -39 -99 -8 -5 -7 -8 1 -8 6 0 15 5 18
10 11 18 23 10 30 -19 8 -39 -9 -69 -42 -74 -20 -3 -16 -4 14 -6 25 0 43 4 46
12 4 9 8 8 16 -3 8 -11 9 -3 4 30 -14 80 -8 139 16 163 20 20 32 22 140 22 92
1 123 4 143 17 22 14 161 31 153 18 -8 -12 129 -9 167 5 23 8 52 12 64 9 12
-3 25 -1 28 5 4 6 12 11 17 11 6 0 8 -4 5 -9 -3 -5 7 -11 22 -14 66 -14 87
-21 102 -37 8 -9 11 -9 5 -1 -5 8 -8 16 -6 19 1 3 -16 16 -38 29 -43 24 -188
47 -193 31 -5 -13 -107 -17 -115 -5 -3 6 -1 7 4 4 6 -4 13 0 17 8 3 8 12 15
21 15 8 0 15 4 15 10 0 5 -7 7 -15 4 -8 -4 -15 -1 -15 5 0 6 6 11 13 11 8 0 7
4 -3 11 -13 9 -13 10 0 6 8 -2 20 -13 25 -24 11 -21 11 -21 35 -2 14 10 31 19
37 19 7 0 12 3 12 8 -4 25 4 30 42 27 34 -4 42 -1 46 15 3 11 9 17 14 14 5 -3
13 6 18 19 6 14 22 33 37 44 15 10 39 30 54 45 19 19 34 25 49 21 11 -3 21 -1
21 5 0 19 -12 42 -22 42 -19 0 -70 -42 -98 -81 -15 -21 -30 -36 -33 -33 -3 3
-10 -4 -17 -15 -6 -12 -15 -19 -21 -16 -5 4 -9 3 -8 -2 1 -4 -2 -19 -6 -31 -6
-18 -10 -20 -16 -10 -14 22 -11 32 31 88 25 33 40 64 40 82 0 16 7 31 15 34
19 8 19 28 1 43 -12 10 -16 5 -26 -23z m-28 -105 c-15 -27 -29 -45 -33 -40 -9
16 -31 -17 -27 -43 2 -16 -3 -24 -17 -26 -16 -3 -18 -1 -8 9 8 8 9 17 3 24 -6
8 6 30 38 68 58 70 79 74 44 8z m-335 -106 c6 -14 7 -23 2 -19 -5 3 -9 0 -9
-5 0 -14 17 -14 25 0 10 15 47 -21 40 -40 -4 -11 0 -10 17 4 13 11 20 16 15
11 -4 -5 1 -18 10 -28 16 -18 16 -19 -11 -14 -23 4 -27 2 -22 -12 5 -13 3 -13
-9 2 -8 11 -15 27 -15 36 0 13 -8 16 -35 14 -27 -3 -35 1 -35 14 -1 16 -2 15
-14 -1 -8 -10 -17 -14 -20 -8 -3 5 0 12 6 15 10 5 10 7 0 12 -10 5 -10 10 4
25 23 25 37 24 51 -6z m-161 -70 c6 -20 8 -38 4 -40 -4 -3 -11 7 -14 20 -4 14
-11 23 -16 20 -12 -7 -12 -3 -4 19 9 25 18 19 30 -19z m132 -11 c20 -8 39 -14
41 -12 2 2 10 -7 19 -19 14 -23 14 -23 -37 -23 -29 0 -61 5 -73 11 -27 14 -36
3 -12 -17 18 -14 18 -15 -6 -8 -14 3 -32 13 -40 21 -13 12 -13 13 3 7 15 -5
18 -3 16 12 -8 45 25 55 89 28z"/>
<path d="M1390 2188 c-22 -36 -25 -48 -11 -48 8 0 51 64 51 76 0 15 -23 -1
-40 -28z"/>
<path d="M998 2204 c-5 -4 -8 -21 -8 -38 1 -26 2 -28 11 -13 11 19 8 63 -3 51z"/>
<path d="M1076 2194 c-9 -24 -7 -56 3 -50 11 7 20 66 10 66 -4 0 -10 -7 -13
-16z"/>
<path d="M830 2144 c-13 -33 -13 -34 5 -34 10 0 15 10 15 30 0 37 -7 38 -20 4z"/>
<path d="M876 2155 c-9 -24 -20 -205 -12 -205 17 0 36 75 36 139 0 67 -11 98
-24 66z"/>
<path d="M1731 2046 c-19 -19 -40 -32 -47 -29 -8 3 -21 0 -29 -7 -17 -14 -20
-50 -5 -50 6 0 10 4 10 8 0 5 7 17 16 28 14 18 15 18 8 -6 -12 -41 -5 -83 18
-107 25 -27 43 -29 52 -7 9 24 7 31 -4 14 -8 -13 -10 -12 -10 5 0 15 -3 16
-12 7 -15 -15 -24 -15 -26 1 -7 75 -5 78 36 117 39 35 53 60 34 60 -4 0 -23
-15 -41 -34z"/>
<path d="M1813 2067 c-13 -5 -23 -16 -23 -22 0 -7 -17 -28 -37 -47 -40 -36
-56 -86 -21 -64 10 6 16 16 14 23 -3 7 1 10 9 6 8 -3 12 -10 8 -16 -4 -6 -1
-7 7 -2 10 6 12 4 6 -11 -6 -15 -5 -16 5 -7 9 9 9 16 1 26 -9 11 -7 18 8 32
11 10 19 23 17 29 -3 6 5 21 16 33 24 27 20 34 -10 20z"/>
<path d="M745 1997 c4 -27 3 -37 -4 -32 -6 3 -11 2 -11 -4 0 -5 5 -13 10 -16
6 -3 10 -1 10 5 0 7 6 10 13 7 8 -3 19 -2 26 3 10 5 5 16 -19 41 l-31 34 6
-38z"/>
<path d="M1835 1924 c9 -9 14 -23 11 -30 -3 -8 -2 -14 3 -14 5 0 11 14 13 30
4 26 2 30 -19 30 -23 0 -23 -1 -8 -16z"/>
<path d="M1774 1856 c5 -37 3 -62 -6 -75 -14 -23 -4 -41 14 -23 9 9 9 12 -2
12 -7 0 -10 3 -7 6 4 4 14 1 24 -7 15 -13 16 -12 9 6 -5 11 -9 30 -9 43 -1 12
-5 22 -11 22 -5 0 1 11 14 26 21 21 22 27 10 34 -34 22 -42 12 -36 -44z"/>
<path d="M1556 1781 c-3 -4 4 -16 16 -25 17 -15 20 -16 15 -3 -3 9 -2 19 3 22
9 6 14 -8 11 -27 0 -5 3 -8 9 -8 5 0 7 -8 3 -17 -5 -15 -3 -14 10 2 9 11 17
29 17 40 0 16 2 17 9 6 6 -10 4 -25 -6 -45 -15 -30 -15 -30 2 -16 10 8 21 14
24 13 3 -1 8 1 11 4 3 4 -1 3 -7 -1 -7 -4 -13 -2 -13 3 0 6 6 11 13 11 15 0
46 -20 31 -20 -7 0 -14 -9 -17 -20 -8 -32 13 -23 25 11 7 19 13 27 18 19 5 -8
9 -5 13 8 4 18 2 20 -19 12 -13 -5 -23 -6 -23 -2 3 19 -2 23 -16 12 -15 -12
-16 -11 -19 12 -1 13 -102 22 -110 9z"/>
<path d="M1824 1735 c-3 -14 -10 -25 -15 -25 -5 0 -6 -7 -3 -15 4 -8 2 -15 -3
-15 -6 0 -11 -15 -11 -32 -2 -59 -3 -68 -12 -68 -5 0 -6 -12 -4 -27 5 -27 5
-27 -15 -9 -13 12 -21 14 -21 7 0 -7 -4 -10 -9 -6 -5 3 -12 1 -16 -5 -4 -6
-10 -8 -15 -5 -5 3 -15 -4 -23 -15 -11 -17 -19 -19 -38 -11 l-24 10 27 0 c25
1 53 21 29 21 -6 0 -11 8 -11 18 0 14 -2 15 -9 2 -6 -8 -7 -18 -5 -22 3 -4 -4
-8 -15 -8 -12 0 -21 5 -21 10 0 6 7 10 15 10 9 0 12 6 8 16 -3 9 -13 14 -24
11 -11 -3 -17 -1 -13 4 3 5 1 9 -4 9 -18 0 -20 -13 -6 -46 8 -19 12 -45 10
-59 -7 -38 18 -51 39 -19 9 14 19 23 22 21 2 -3 21 6 40 19 43 29 48 29 72 5
19 -19 19 -18 24 12 4 33 32 150 47 199 5 16 4 30 -1 33 -4 3 -11 -6 -15 -20z"/>
<path d="M1768 1733 c-9 -2 -16 -13 -15 -23 1 -10 4 -17 8 -14 4 2 9 -2 12 -8
2 -7 8 -9 13 -5 5 5 1 13 -9 19 -18 9 -18 10 0 24 19 14 18 14 -9 7z"/>
<path d="M1544 1714 c3 -9 6 -24 6 -34 0 -10 7 -26 16 -34 8 -9 12 -22 8 -28
-4 -7 -4 -10 1 -6 4 4 13 1 19 -6 17 -22 61 -25 60 -4 -1 10 4 14 12 11 8 -3
14 -9 14 -15 0 -5 4 -7 9 -3 5 3 12 1 16 -5 3 -5 11 -10 17 -10 6 0 -2 11 -18
25 -46 41 -52 44 -58 38 -3 -3 -14 5 -24 17 -15 18 -21 20 -27 10 -5 -9 -4
-11 3 -6 7 4 12 4 13 -1 0 -4 2 -18 5 -30 2 -12 -1 -25 -6 -28 -6 -3 -10 3
-10 13 0 11 -7 25 -15 32 -19 15 -21 55 -2 44 6 -4 3 2 -7 14 -22 26 -41 29
-32 6z"/>
<path d="M1710 1686 c-9 -11 -9 -20 1 -38 8 -14 14 -18 17 -10 2 6 9 9 15 6 9
-5 9 -4 0 6 -6 7 -9 18 -7 25 8 19 -12 27 -26 11z"/>
<path d="M1752 1639 c-7 -10 -12 -29 -12 -41 0 -20 3 -19 16 9 9 18 20 30 25
27 5 -3 9 -1 9 4 0 19 -27 20 -38 1z"/>
<path d="M866 1538 c-14 -8 -15 -13 -5 -24 6 -8 17 -14 24 -14 6 0 12 -6 12
-14 0 -8 -5 -14 -10 -13 -5 1 -12 -4 -15 -12 -3 -10 0 -12 11 -8 10 4 21 -1
27 -11 9 -15 10 -14 5 5 -8 30 13 40 31 14 8 -12 25 -21 38 -21 12 0 27 -5 34
-12 9 -9 12 -9 12 1 0 7 5 9 10 6 18 -11 10 32 -10 58 -22 28 -32 32 -101 45
-28 6 -54 5 -63 0z"/>
<path d="M1172 1507 c-41 -18 -34 -35 11 -26 49 9 55 6 34 -16 -19 -18 -11
-49 10 -41 8 3 17 6 19 6 3 0 3 4 -1 9 -3 6 3 15 14 20 16 9 21 7 26 -9 8 -26
45 -26 52 -1 3 12 11 17 19 14 8 -3 12 -9 9 -13 -3 -5 0 -12 6 -16 8 -5 9 -3
4 6 -6 9 -1 10 16 6 23 -7 23 -7 5 8 -11 9 -24 16 -29 16 -5 0 -23 10 -40 23
-35 24 -115 31 -155 14z"/>
<path d="M1581 1408 c1 -18 -1 -50 -4 -70 -3 -23 -1 -35 5 -32 5 4 8 15 5 25
-3 10 -1 22 4 25 12 7 11 84 -1 84 -5 0 -9 -15 -9 -32z"/>
<path d="M1711 1229 c-13 -11 -30 -23 -37 -27 -8 -4 -16 -30 -19 -57 -2 -28
-2 -42 1 -32 3 9 10 17 15 17 6 0 9 6 8 13 -3 24 1 37 12 37 7 0 9 -10 5 -27
-5 -23 -4 -25 5 -10 6 10 8 25 5 34 -4 10 2 26 15 40 28 29 22 37 -10 12z"/>
<path d="M1002 1173 c-6 -2 -9 -10 -5 -16 3 -7 3 -9 -1 -5 -12 10 -69 -13 -84
-34 -18 -24 -30 -23 -35 5 -4 20 -4 19 -6 -4 -1 -33 23 -102 49 -139 11 -15
20 -37 20 -47 0 -10 7 -28 15 -40 10 -14 11 -23 4 -25 -6 -2 -1 -16 12 -32 17
-22 20 -32 12 -45 -8 -13 -7 -17 7 -17 18 0 18 11 1 79 -8 32 -7 37 9 37 9 0
29 9 43 20 28 22 62 26 73 9 3 -6 1 -15 -6 -19 -8 -5 -5 -9 9 -13 12 -3 19 -2
16 3 -3 4 1 10 8 13 7 2 14 19 15 36 2 28 0 31 -26 31 -16 0 -51 3 -77 7 -46
6 -47 5 -36 -15 15 -28 14 -52 -2 -52 -14 0 -60 73 -52 84 3 3 2 4 -1 1 -6 -4
-44 37 -44 49 0 15 73 17 111 2 33 -13 63 -16 149 -11 90 4 109 3 114 -10 7
-20 26 -19 26 0 0 22 -30 66 -41 59 -5 -2 -19 2 -33 11 -15 10 -27 12 -30 6
-4 -5 2 -11 11 -13 15 -3 14 -5 -4 -10 -12 -3 -22 -3 -21 1 0 3 0 15 -1 25 -1
20 -1 20 -16 0 -11 -14 -14 -15 -9 -2 7 20 -31 45 -39 25 -3 -7 -6 -5 -6 5 -1
9 9 24 21 32 l22 16 -26 0 c-14 0 -31 -7 -38 -15 -16 -19 -39 -19 -64 0 -21
16 -24 16 -44 8z m106 -89 c13 -9 35 -20 50 -24 20 -6 10 -8 -41 -9 -38 -1
-83 5 -102 13 -42 18 -45 28 -6 20 16 -4 32 -1 35 5 10 16 38 14 64 -5z"/>
<path d="M1508 1118 c-9 -7 -18 -22 -20 -33 -2 -11 -10 -20 -18 -20 -17 0 -60
-52 -60 -73 0 -7 -4 -10 -10 -7 -5 3 -10 1 -10 -4 0 -24 26 -8 50 29 13 22 29
40 35 40 5 0 20 18 33 40 24 43 24 47 0 28z"/>
<path d="M1341 942 c-8 -14 -11 -14 -27 -2 -11 9 -15 10 -10 3 4 -7 3 -13 -3
-13 -6 0 -18 -15 -26 -32 l-16 -33 20 23 c11 13 21 22 23 21 2 -1 23 7 48 18
40 17 42 20 22 25 -14 4 -25 1 -31 -10z"/>
<path d="M1195 870 c-2 -4 -18 -5 -34 -4 -17 1 -29 -2 -26 -7 3 -4 12 -6 20
-2 8 3 15 0 15 -7 0 -9 4 -9 13 -3 6 6 22 9 35 8 12 -1 22 4 22 11 0 12 -38
16 -45 4z"/>
<path d="M910 775 c0 -19 11 -19 36 0 18 14 18 14 -8 15 -18 0 -28 -5 -28 -15z"/>
</g>
</svg>
